<svg xmlns="http://www.w3.org/2000/svg" viewBox="0 0 600 440" role="img" aria-label="مبدل صفحه‌ای؛ نمای گرافیکی نمونه"><defs>
<linearGradient id="metal" x1="0" y1="0" x2="1" y2="1"><stop stop-color="#fafcfb"/><stop offset=".32" stop-color="#e0e5e3"/><stop offset=".6" stop-color="#aeb9b7"/><stop offset="1" stop-color="#d6ddda"/></linearGradient>
<linearGradient id="silver" x1="0" y1="0" x2="0" y2="1"><stop stop-color="#f8faf9"/><stop offset=".35" stop-color="#cbd4d2"/><stop offset=".5" stop-color="#f5f7f6"/><stop offset=".9" stop-color="#8f9e9a"/></linearGradient>
<linearGradient id="dark" x1="0" y1="0" x2="1" y2="1"><stop stop-color="#52645e"/><stop offset=".3" stop-color="#253c33"/><stop offset="1" stop-color="#101e1b"/></linearGradient>
<linearGradient id="black" x1="0" y1="0" x2="1" y2="0"><stop stop-color="#1f2728"/><stop offset=".25" stop-color="#4d595a"/><stop offset=".48" stop-color="#303b3e"/><stop offset="1" stop-color="#101818"/></linearGradient>
<linearGradient id="green" x1="0" y1="0" x2="1" y2="1"><stop stop-color="#9cb943"/><stop offset=".3" stop-color="#729238"/><stop offset=".7" stop-color="#436c2a"/><stop offset="1" stop-color="#234d2c"/></linearGradient>
<linearGradient id="blue" x1="0" y1="0" x2="1" y2="1"><stop stop-color="#72a4b0"/><stop offset=".35" stop-color="#3f7789"/><stop offset="1" stop-color="#224c5b"/></linearGradient>
<linearGradient id="copper" x1="0" y1="0" x2="1" y2="1"><stop stop-color="#79513b"/><stop offset=".18" stop-color="#ba7449"/><stop offset=".37" stop-color="#edb27a"/><stop offset=".53" stop-color="#f8d1a1"/><stop offset=".65" stop-color="#a45b36"/><stop offset=".83" stop-color="#d89162"/><stop offset="1" stop-color="#805035"/></linearGradient>
<linearGradient id="brass" x1="0" y1="0" x2="1" y2="1"><stop stop-color="#f4dda2"/><stop offset=".35" stop-color="#cda45a"/><stop offset=".55" stop-color="#f9e7b7"/><stop offset=".8" stop-color="#a77d37"/><stop offset="1" stop-color="#e3bd76"/></linearGradient>
<radialGradient id="shade"><stop stop-color="#102821" stop-opacity=".18"/><stop offset="1" stop-color="#102821" stop-opacity="0"/></radialGradient>
<pattern id="fins" width="5" height="5" patternUnits="userSpaceOnUse"><rect width="5" height="5" fill="#607775"/><path d="M1 0v5" stroke="#a0b3ad" stroke-width="1"/></pattern>
<pattern id="smallfins" width="4" height="4" patternUnits="userSpaceOnUse"><rect width="4" height="4" fill="#364a45"/><path d="M1 0v4" stroke="#82978e" stroke-width="1"/></pattern>
<pattern id="grill" width="8" height="8" patternUnits="userSpaceOnUse"><rect width="8" height="8" fill="#283f37"/><path d="M0 0h8M0 0v8" stroke="#9baba4" stroke-width=".75"/></pattern>
</defs><ellipse cx="304" cy="364" rx="232" ry="37" fill="url(#shade)"/><g transform="translate(160 45) rotate(14 140 170)">
<rect x="47" y="27" width="190" height="304" rx="39" fill="#9b864c"/>
<rect x="39" y="25" width="190" height="304" rx="37" fill="url(#brass)" stroke="#8e7a45" stroke-width="2"/>
<rect x="31" y="23" width="190" height="304" rx="37" fill="url(#brass)" stroke="#8e7a45" stroke-width="2"/>
<rect x="23" y="21" width="190" height="304" rx="37" fill="url(#brass)" stroke="#8e7a45" stroke-width="2"/>
<rect x="29" y="27" width="177" height="290" rx="31" fill="none" stroke="#fff0c5" stroke-width="3"/><path d="M48 103l36-12 37 12 36-12 36 12" fill="none" stroke="#ac914f" stroke-width="1.7"/><path d="M48 112l36-12 37 12 36-12 36 12" fill="none" stroke="#ac914f" stroke-width="1.7"/><path d="M48 121l36-12 37 12 36-12 36 12" fill="none" stroke="#ac914f" stroke-width="1.7"/><path d="M48 130l36-12 37 12 36-12 36 12" fill="none" stroke="#ac914f" stroke-width="1.7"/><path d="M48 139l36-12 37 12 36-12 36 12" fill="none" stroke="#ac914f" stroke-width="1.7"/><path d="M48 148l36-12 37 12 36-12 36 12" fill="none" stroke="#ac914f" stroke-width="1.7"/><path d="M48 157l36-12 37 12 36-12 36 12" fill="none" stroke="#ac914f" stroke-width="1.7"/><path d="M48 166l36-12 37 12 36-12 36 12" fill="none" stroke="#ac914f" stroke-width="1.7"/><path d="M48 175l36-12 37 12 36-12 36 12" fill="none" stroke="#ac914f" stroke-width="1.7"/><path d="M48 184l36-12 37 12 36-12 36 12" fill="none" stroke="#ac914f" stroke-width="1.7"/><path d="M48 193l36-12 37 12 36-12 36 12" fill="none" stroke="#ac914f" stroke-width="1.7"/><path d="M48 202l36-12 37 12 36-12 36 12" fill="none" stroke="#ac914f" stroke-width="1.7"/><path d="M48 211l36-12 37 12 36-12 36 12" fill="none" stroke="#ac914f" stroke-width="1.7"/><path d="M48 220l36-12 37 12 36-12 36 12" fill="none" stroke="#ac914f" stroke-width="1.7"/><path d="M48 229l36-12 37 12 36-12 36 12" fill="none" stroke="#ac914f" stroke-width="1.7"/><path d="M48 238l36-12 37 12 36-12 36 12" fill="none" stroke="#ac914f" stroke-width="1.7"/><path d="M48 247l36-12 37 12 36-12 36 12" fill="none" stroke="#ac914f" stroke-width="1.7"/><path d="M48 256l36-12 37 12 36-12 36 12" fill="none" stroke="#ac914f" stroke-width="1.7"/><circle cx="67" cy="73" r="27" fill="url(#brass)" stroke="#94783e" stroke-width="3"/><circle cx="67" cy="73" r="18" fill="#3d4737"/><circle cx="67" cy="73" r="22" fill="none" stroke="#f6e3b2" stroke-width="3"/><circle cx="170" cy="73" r="27" fill="url(#brass)" stroke="#94783e" stroke-width="3"/><circle cx="170" cy="73" r="18" fill="#3d4737"/><circle cx="170" cy="73" r="22" fill="none" stroke="#f6e3b2" stroke-width="3"/><circle cx="67" cy="277" r="27" fill="url(#brass)" stroke="#94783e" stroke-width="3"/><circle cx="67" cy="277" r="18" fill="#3d4737"/><circle cx="67" cy="277" r="22" fill="none" stroke="#f6e3b2" stroke-width="3"/><circle cx="170" cy="277" r="27" fill="url(#brass)" stroke="#94783e" stroke-width="3"/><circle cx="170" cy="277" r="18" fill="#3d4737"/><circle cx="170" cy="277" r="22" fill="none" stroke="#f6e3b2" stroke-width="3"/></g></svg>